<mxfile host="app.diagrams.net" agent="Mozilla/5.0 (Windows NT 10.0; Win64; x64) AppleWebKit/537.36 (KHTML, like Gecko) Chrome/139.0.0.0 Safari/537.36" version="28.1.0">
  <diagram name="第 1 页" id="j7T6rVBxxdLHiMrKp17y">
    <mxGraphModel dx="2590" dy="1415" grid="1" gridSize="10" guides="1" tooltips="1" connect="1" arrows="1" fold="1" page="1" pageScale="1" pageWidth="1900" pageHeight="2000" math="0" shadow="0">
      <root>
        <mxCell id="0" />
        <mxCell id="1" parent="0" />
        <mxCell id="_O-edJC-RUrUkgMbYZwg-1" value="" style="rounded=0;whiteSpace=wrap;html=1;" parent="1" vertex="1">
          <mxGeometry x="830" y="660" width="180" height="80" as="geometry" />
        </mxCell>
        <mxCell id="_O-edJC-RUrUkgMbYZwg-2" value="Immersive Purse" style="rounded=0;whiteSpace=wrap;html=1;labelPosition=center;verticalLabelPosition=top;align=center;verticalAlign=bottom;" parent="1" vertex="1">
          <mxGeometry x="105" y="580" width="1405" height="1040" as="geometry" />
        </mxCell>
        <mxCell id="_O-edJC-RUrUkgMbYZwg-3" value="" style="rounded=0;whiteSpace=wrap;html=1;labelPosition=left;verticalLabelPosition=top;align=right;verticalAlign=bottom;" parent="1" vertex="1">
          <mxGeometry x="130" y="670" width="390" height="100" as="geometry" />
        </mxCell>
        <mxCell id="_O-edJC-RUrUkgMbYZwg-4" value="Web 端" style="image;aspect=fixed;html=1;points=[];align=center;fontSize=12;image=img/lib/azure2/identity/Multi_Factor_Authentication.svg;fontFamily=Georgia;labelPosition=center;verticalLabelPosition=top;verticalAlign=bottom;" parent="1" vertex="1">
          <mxGeometry x="175" y="695" width="50" height="50" as="geometry" />
        </mxCell>
        <mxCell id="_O-edJC-RUrUkgMbYZwg-5" value="终端层" style="text;html=1;align=center;verticalAlign=middle;resizable=0;points=[];autosize=1;strokeColor=none;fillColor=none;" parent="1" vertex="1">
          <mxGeometry x="130" y="630" width="60" height="30" as="geometry" />
        </mxCell>
        <mxCell id="_O-edJC-RUrUkgMbYZwg-6" style="edgeStyle=orthogonalEdgeStyle;rounded=0;orthogonalLoop=1;jettySize=auto;html=1;exitX=0.5;exitY=1;exitDx=0;exitDy=0;" parent="1" source="_O-edJC-RUrUkgMbYZwg-3" target="_O-edJC-RUrUkgMbYZwg-3" edge="1">
          <mxGeometry relative="1" as="geometry" />
        </mxCell>
        <mxCell id="_O-edJC-RUrUkgMbYZwg-7" value="AIPC / 摩托罗拉" style="image;aspect=fixed;html=1;points=[];align=center;fontSize=12;image=img/lib/azure2/identity/Users.svg;labelPosition=center;verticalLabelPosition=top;verticalAlign=bottom;" parent="1" vertex="1">
          <mxGeometry x="385" y="690.32" width="50" height="54.68" as="geometry" />
        </mxCell>
        <mxCell id="_O-edJC-RUrUkgMbYZwg-8" value="" style="rounded=0;whiteSpace=wrap;html=1;labelPosition=left;verticalLabelPosition=top;align=right;verticalAlign=bottom;" parent="1" vertex="1">
          <mxGeometry x="130" y="810" width="630" height="100" as="geometry" />
        </mxCell>
        <mxCell id="_O-edJC-RUrUkgMbYZwg-9" value="互动处理层" style="text;html=1;align=center;verticalAlign=middle;resizable=0;points=[];autosize=1;strokeColor=none;fillColor=none;" parent="1" vertex="1">
          <mxGeometry x="145" y="780" width="80" height="30" as="geometry" />
        </mxCell>
        <mxCell id="_O-edJC-RUrUkgMbYZwg-10" value="API 网关" style="sketch=0;points=[[0,0,0],[0.25,0,0],[0.5,0,0],[0.75,0,0],[1,0,0],[0,1,0],[0.25,1,0],[0.5,1,0],[0.75,1,0],[1,1,0],[0,0.25,0],[0,0.5,0],[0,0.75,0],[1,0.25,0],[1,0.5,0],[1,0.75,0]];outlineConnect=0;fontColor=#232F3E;fillColor=#8C4FFF;strokeColor=#ffffff;dashed=0;verticalLabelPosition=top;verticalAlign=bottom;align=center;html=1;fontSize=12;fontStyle=0;aspect=fixed;shape=mxgraph.aws4.resourceIcon;resIcon=mxgraph.aws4.serverless;labelPosition=center;" parent="1" vertex="1">
          <mxGeometry x="250" y="830" width="60" height="60" as="geometry" />
        </mxCell>
        <mxCell id="_O-edJC-RUrUkgMbYZwg-11" value="负载均衡" style="image;aspect=fixed;html=1;points=[];align=center;fontSize=12;image=img/lib/azure2/identity/Identity_Governance.svg;labelPosition=center;verticalLabelPosition=top;verticalAlign=bottom;" parent="1" vertex="1">
          <mxGeometry x="155" y="830" width="60" height="60" as="geometry" />
        </mxCell>
        <mxCell id="_O-edJC-RUrUkgMbYZwg-12" value="分布式限流" style="sketch=0;points=[[0,0,0],[0.25,0,0],[0.5,0,0],[0.75,0,0],[1,0,0],[0,1,0],[0.25,1,0],[0.5,1,0],[0.75,1,0],[1,1,0],[0,0.25,0],[0,0.5,0],[0,0.75,0],[1,0.25,0],[1,0.5,0],[1,0.75,0]];outlineConnect=0;fontColor=#232F3E;fillColor=#E7157B;strokeColor=#ffffff;dashed=0;verticalLabelPosition=top;verticalAlign=bottom;align=center;html=1;fontSize=12;fontStyle=0;aspect=fixed;shape=mxgraph.aws4.resourceIcon;resIcon=mxgraph.aws4.application_integration;labelPosition=center;" parent="1" vertex="1">
          <mxGeometry x="350" y="830" width="60" height="60" as="geometry" />
        </mxCell>
        <mxCell id="_O-edJC-RUrUkgMbYZwg-13" value="校验处理" style="sketch=0;points=[[0,0,0],[0.25,0,0],[0.5,0,0],[0.75,0,0],[1,0,0],[0,1,0],[0.25,1,0],[0.5,1,0],[0.75,1,0],[1,1,0],[0,0.25,0],[0,0.5,0],[0,0.75,0],[1,0.25,0],[1,0.5,0],[1,0.75,0]];outlineConnect=0;fontColor=#232F3E;fillColor=#01A88D;strokeColor=#ffffff;dashed=0;verticalLabelPosition=top;verticalAlign=bottom;align=center;html=1;fontSize=12;fontStyle=0;aspect=fixed;shape=mxgraph.aws4.resourceIcon;resIcon=mxgraph.aws4.bedrock;labelPosition=center;" parent="1" vertex="1">
          <mxGeometry x="450" y="829" width="58" height="58" as="geometry" />
        </mxCell>
        <mxCell id="_O-edJC-RUrUkgMbYZwg-15" value="规则引擎" style="image;aspect=fixed;html=1;points=[];align=center;fontSize=12;image=img/lib/azure2/networking/Azure_Communications_Gateway.svg;labelPosition=center;verticalLabelPosition=top;verticalAlign=bottom;" parent="1" vertex="1">
          <mxGeometry x="670" y="829" width="58" height="58" as="geometry" />
        </mxCell>
        <mxCell id="_O-edJC-RUrUkgMbYZwg-16" value="&lt;span style=&quot;color: rgba(0, 0, 0, 0); font-family: monospace; font-size: 0px; text-align: start; text-wrap-mode: nowrap;&quot;&gt;%3CmxGraphModel%3E%3Croot%3E%3CmxCell%20id%3D%220%22%2F%3E%3CmxCell%20id%3D%221%22%20parent%3D%220%22%2F%3E%3CmxCell%20id%3D%222%22%20value%3D%22%22%20style%3D%22rounded%3D0%3BwhiteSpace%3Dwrap%3Bhtml%3D1%3B%22%20vertex%3D%221%22%20parent%3D%221%22%3E%3CmxGeometry%20x%3D%22147.5%22%20y%3D%22980%22%20width%3D%22262.5%22%20height%3D%22100%22%20as%3D%22geometry%22%2F%3E%3C%2FmxCell%3E%3C%2Froot%3E%3C%2FmxGraphModel%3E&lt;/span&gt;" style="rounded=0;whiteSpace=wrap;html=1;labelPosition=center;verticalLabelPosition=top;align=center;verticalAlign=bottom;" parent="1" vertex="1">
          <mxGeometry x="130" y="950" width="630" height="160" as="geometry" />
        </mxCell>
        <mxCell id="_O-edJC-RUrUkgMbYZwg-17" value="视频采集预处理层" style="text;html=1;align=center;verticalAlign=middle;resizable=0;points=[];autosize=1;strokeColor=none;fillColor=none;" parent="1" vertex="1">
          <mxGeometry x="125" y="920" width="120" height="30" as="geometry" />
        </mxCell>
        <mxCell id="_O-edJC-RUrUkgMbYZwg-18" value="" style="rounded=0;whiteSpace=wrap;html=1;" parent="1" vertex="1">
          <mxGeometry x="137.5" y="980" width="282.5" height="100" as="geometry" />
        </mxCell>
        <mxCell id="_O-edJC-RUrUkgMbYZwg-19" value="摄像机无人机" style="sketch=0;points=[[0,0,0],[0.25,0,0],[0.5,0,0],[0.75,0,0],[1,0,0],[0,1,0],[0.25,1,0],[0.5,1,0],[0.75,1,0],[1,1,0],[0,0.25,0],[0,0.5,0],[0,0.75,0],[1,0.25,0],[1,0.5,0],[1,0.75,0]];outlineConnect=0;fontColor=#232F3E;fillColor=#ED7100;strokeColor=#ffffff;dashed=0;verticalLabelPosition=top;verticalAlign=bottom;align=center;html=1;fontSize=12;fontStyle=0;aspect=fixed;shape=mxgraph.aws4.resourceIcon;resIcon=mxgraph.aws4.media_services;labelPosition=center;" parent="1" vertex="1">
          <mxGeometry x="158.75" y="1004" width="62.5" height="62.5" as="geometry" />
        </mxCell>
        <mxCell id="_O-edJC-RUrUkgMbYZwg-20" value="ARVR处理引擎" style="sketch=0;outlineConnect=0;fontColor=#232F3E;gradientColor=none;fillColor=#ED7100;strokeColor=none;dashed=0;verticalLabelPosition=top;verticalAlign=bottom;align=center;html=1;fontSize=12;fontStyle=0;aspect=fixed;pointerEvents=1;shape=mxgraph.aws4.cloud_digital_interface;labelPosition=center;" parent="1" vertex="1">
          <mxGeometry x="250" y="1002.5" width="60" height="60" as="geometry" />
        </mxCell>
        <mxCell id="_O-edJC-RUrUkgMbYZwg-21" value="防抖帧同步" style="sketch=0;points=[[0,0,0],[0.25,0,0],[0.5,0,0],[0.75,0,0],[1,0,0],[0,1,0],[0.25,1,0],[0.5,1,0],[0.75,1,0],[1,1,0],[0,0.25,0],[0,0.5,0],[0,0.75,0],[1,0.25,0],[1,0.5,0],[1,0.75,0]];outlineConnect=0;fontColor=#232F3E;fillColor=#ED7100;strokeColor=#ffffff;dashed=0;verticalLabelPosition=top;verticalAlign=bottom;align=center;html=1;fontSize=12;fontStyle=0;aspect=fixed;shape=mxgraph.aws4.resourceIcon;resIcon=mxgraph.aws4.kinesis_video_streams;labelPosition=center;" parent="1" vertex="1">
          <mxGeometry x="339.46" y="997.63" width="64.75" height="64.75" as="geometry" />
        </mxCell>
        <mxCell id="_O-edJC-RUrUkgMbYZwg-22" value="视频流处理模块" style="text;html=1;align=center;verticalAlign=middle;resizable=0;points=[];autosize=1;strokeColor=none;fillColor=none;" parent="1" vertex="1">
          <mxGeometry x="137.5" y="950" width="110" height="30" as="geometry" />
        </mxCell>
        <mxCell id="_O-edJC-RUrUkgMbYZwg-23" value="" style="rounded=0;whiteSpace=wrap;html=1;" parent="1" vertex="1">
          <mxGeometry x="440" y="980" width="262.5" height="100" as="geometry" />
        </mxCell>
        <mxCell id="_O-edJC-RUrUkgMbYZwg-24" value="预处理模块" style="text;html=1;align=center;verticalAlign=middle;resizable=0;points=[];autosize=1;strokeColor=none;fillColor=none;" parent="1" vertex="1">
          <mxGeometry x="450" y="950" width="80" height="30" as="geometry" />
        </mxCell>
        <mxCell id="_O-edJC-RUrUkgMbYZwg-26" value="关键帧提取" style="sketch=0;points=[[0,0,0],[0.25,0,0],[0.5,0,0],[0.75,0,0],[1,0,0],[0,1,0],[0.25,1,0],[0.5,1,0],[0.75,1,0],[1,1,0],[0,0.25,0],[0,0.5,0],[0,0.75,0],[1,0.25,0],[1,0.5,0],[1,0.75,0]];outlineConnect=0;fontColor=#232F3E;fillColor=#ED7100;strokeColor=#ffffff;dashed=0;verticalLabelPosition=top;verticalAlign=bottom;align=center;html=1;fontSize=12;fontStyle=0;aspect=fixed;shape=mxgraph.aws4.resourceIcon;resIcon=mxgraph.aws4.elastic_transcoder;labelPosition=center;" parent="1" vertex="1">
          <mxGeometry x="461" y="998" width="69" height="69" as="geometry" />
        </mxCell>
        <mxCell id="_O-edJC-RUrUkgMbYZwg-27" value="" style="rounded=0;whiteSpace=wrap;html=1;" parent="1" vertex="1">
          <mxGeometry x="129" y="1150" width="1331" height="210" as="geometry" />
        </mxCell>
        <mxCell id="_O-edJC-RUrUkgMbYZwg-28" value="AI 处理层" style="text;html=1;align=center;verticalAlign=middle;resizable=0;points=[];autosize=1;strokeColor=none;fillColor=none;" parent="1" vertex="1">
          <mxGeometry x="120" y="1120" width="70" height="30" as="geometry" />
        </mxCell>
        <mxCell id="_O-edJC-RUrUkgMbYZwg-29" value="" style="rounded=0;whiteSpace=wrap;html=1;" parent="1" vertex="1">
          <mxGeometry x="155" y="1180" width="425" height="130" as="geometry" />
        </mxCell>
        <mxCell id="_O-edJC-RUrUkgMbYZwg-30" value="YOLOv8n" style="image;aspect=fixed;html=1;points=[];align=center;fontSize=12;image=img/lib/azure2/ai_machine_learning/Machine_Learning_Studio_Classic_Web_Services.svg;labelPosition=center;verticalLabelPosition=top;verticalAlign=bottom;" parent="1" vertex="1">
          <mxGeometry x="160" y="1210" width="65" height="65" as="geometry" />
        </mxCell>
        <mxCell id="_O-edJC-RUrUkgMbYZwg-31" value="Resnet" style="image;aspect=fixed;html=1;points=[];align=center;fontSize=12;image=img/lib/azure2/ai_machine_learning/Face_APIs.svg;labelPosition=center;verticalLabelPosition=top;verticalAlign=bottom;" parent="1" vertex="1">
          <mxGeometry x="247.5" y="1207" width="68" height="68" as="geometry" />
        </mxCell>
        <mxCell id="_O-edJC-RUrUkgMbYZwg-32" value="GPU 加速" style="image;aspect=fixed;html=1;points=[];align=center;fontSize=12;image=img/lib/azure2/ai_machine_learning/Azure_Applied_AI.svg;labelPosition=center;verticalLabelPosition=top;verticalAlign=bottom;" parent="1" vertex="1">
          <mxGeometry x="339.46" y="1210" width="77.77" height="59.47" as="geometry" />
        </mxCell>
        <mxCell id="_O-edJC-RUrUkgMbYZwg-33" value="目标检测" style="text;html=1;align=center;verticalAlign=middle;resizable=0;points=[];autosize=1;strokeColor=none;fillColor=none;" parent="1" vertex="1">
          <mxGeometry x="145" y="1150" width="70" height="30" as="geometry" />
        </mxCell>
        <mxCell id="_O-edJC-RUrUkgMbYZwg-34" value="" style="rounded=0;whiteSpace=wrap;html=1;" parent="1" vertex="1">
          <mxGeometry x="620.5" y="1180" width="339.5" height="130" as="geometry" />
        </mxCell>
        <mxCell id="_O-edJC-RUrUkgMbYZwg-35" value="特征分析" style="text;html=1;align=center;verticalAlign=middle;resizable=0;points=[];autosize=1;strokeColor=none;fillColor=none;" parent="1" vertex="1">
          <mxGeometry x="620.5" y="1150" width="70" height="30" as="geometry" />
        </mxCell>
        <mxCell id="_O-edJC-RUrUkgMbYZwg-36" value="帧纹理" style="image;aspect=fixed;html=1;points=[];align=center;fontSize=12;image=img/lib/azure2/app_services/Search_Services.svg;labelPosition=center;verticalLabelPosition=top;verticalAlign=bottom;" parent="1" vertex="1">
          <mxGeometry x="741.25" y="1207" width="87.21" height="63" as="geometry" />
        </mxCell>
        <mxCell id="_O-edJC-RUrUkgMbYZwg-37" value="亮度特征" style="image;aspect=fixed;html=1;points=[];align=center;fontSize=12;image=img/lib/azure2/ai_machine_learning/Custom_Vision.svg;labelPosition=center;verticalLabelPosition=top;verticalAlign=bottom;" parent="1" vertex="1">
          <mxGeometry x="850.5" y="1201" width="73" height="73" as="geometry" />
        </mxCell>
        <mxCell id="_O-edJC-RUrUkgMbYZwg-38" value="边缘检测" style="image;aspect=fixed;html=1;points=[];align=center;fontSize=12;image=img/lib/azure2/ai_machine_learning/Immersive_Readers.svg;labelPosition=center;verticalLabelPosition=top;verticalAlign=bottom;" parent="1" vertex="1">
          <mxGeometry x="650" y="1205.78" width="70.44" height="70.44" as="geometry" />
        </mxCell>
        <mxCell id="_O-edJC-RUrUkgMbYZwg-39" value="" style="rounded=0;whiteSpace=wrap;html=1;" parent="1" vertex="1">
          <mxGeometry x="790" y="630" width="670" height="480" as="geometry" />
        </mxCell>
        <mxCell id="_O-edJC-RUrUkgMbYZwg-40" value="中台层" style="text;html=1;align=center;verticalAlign=middle;resizable=0;points=[];autosize=1;strokeColor=none;fillColor=none;" parent="1" vertex="1">
          <mxGeometry x="795" y="605" width="60" height="30" as="geometry" />
        </mxCell>
        <mxCell id="_O-edJC-RUrUkgMbYZwg-41" value="spring cloud" style="image;aspect=fixed;html=1;points=[];align=center;fontSize=12;image=img/lib/azure2/compute/Azure_Spring_Cloud.svg;labelPosition=center;verticalLabelPosition=top;verticalAlign=bottom;" parent="1" vertex="1">
          <mxGeometry x="837.78" y="695" width="75" height="75" as="geometry" />
        </mxCell>
        <mxCell id="_O-edJC-RUrUkgMbYZwg-42" value="用户管理" style="image;aspect=fixed;html=1;points=[];align=center;fontSize=12;image=img/lib/azure2/ai_machine_learning/Cognitive_Services.svg;labelPosition=center;verticalLabelPosition=top;verticalAlign=bottom;" parent="1" vertex="1">
          <mxGeometry x="945.19" y="695" width="93.5" height="66" as="geometry" />
        </mxCell>
        <mxCell id="_O-edJC-RUrUkgMbYZwg-43" value="素材库" style="sketch=0;points=[[0,0,0],[0.25,0,0],[0.5,0,0],[0.75,0,0],[1,0,0],[0,1,0],[0.25,1,0],[0.5,1,0],[0.75,1,0],[1,1,0],[0,0.25,0],[0,0.5,0],[0,0.75,0],[1,0.25,0],[1,0.5,0],[1,0.75,0]];outlineConnect=0;fontColor=#232F3E;fillColor=#7AA116;strokeColor=#ffffff;dashed=0;verticalLabelPosition=top;verticalAlign=bottom;align=center;html=1;fontSize=12;fontStyle=0;aspect=fixed;shape=mxgraph.aws4.resourceIcon;resIcon=mxgraph.aws4.elastic_block_store;labelPosition=center;" parent="1" vertex="1">
          <mxGeometry x="1340" y="683" width="78" height="78" as="geometry" />
        </mxCell>
        <mxCell id="_O-edJC-RUrUkgMbYZwg-44" value="权限管理" style="sketch=0;points=[[0,0,0],[0.25,0,0],[0.5,0,0],[0.75,0,0],[1,0,0],[0,1,0],[0.25,1,0],[0.5,1,0],[0.75,1,0],[1,1,0],[0,0.25,0],[0,0.5,0],[0,0.75,0],[1,0.25,0],[1,0.5,0],[1,0.75,0]];outlineConnect=0;fontColor=#232F3E;fillColor=#DD344C;strokeColor=#ffffff;dashed=0;verticalLabelPosition=top;verticalAlign=bottom;align=center;html=1;fontSize=12;fontStyle=0;aspect=fixed;shape=mxgraph.aws4.resourceIcon;resIcon=mxgraph.aws4.cognito;labelPosition=center;" parent="1" vertex="1">
          <mxGeometry x="1075.89" y="689" width="78" height="78" as="geometry" />
        </mxCell>
        <mxCell id="_O-edJC-RUrUkgMbYZwg-45" value="直播管理" style="sketch=0;points=[[0,0,0],[0.25,0,0],[0.5,0,0],[0.75,0,0],[1,0,0],[0,1,0],[0.25,1,0],[0.5,1,0],[0.75,1,0],[1,1,0],[0,0.25,0],[0,0.5,0],[0,0.75,0],[1,0.25,0],[1,0.5,0],[1,0.75,0]];outlineConnect=0;fontColor=#232F3E;fillColor=#DD344C;strokeColor=#ffffff;dashed=0;verticalLabelPosition=top;verticalAlign=bottom;align=center;html=1;fontSize=12;fontStyle=0;aspect=fixed;shape=mxgraph.aws4.resourceIcon;resIcon=mxgraph.aws4.macie;labelPosition=center;" parent="1" vertex="1">
          <mxGeometry x="1200" y="683" width="78" height="78" as="geometry" />
        </mxCell>
        <mxCell id="_O-edJC-RUrUkgMbYZwg-46" value="Kafka" style="sketch=0;points=[[0,0,0],[0.25,0,0],[0.5,0,0],[0.75,0,0],[1,0,0],[0,1,0],[0.25,1,0],[0.5,1,0],[0.75,1,0],[1,1,0],[0,0.25,0],[0,0.5,0],[0,0.75,0],[1,0.25,0],[1,0.5,0],[1,0.75,0]];outlineConnect=0;fontColor=#232F3E;fillColor=#8C4FFF;strokeColor=#ffffff;dashed=0;verticalLabelPosition=top;verticalAlign=bottom;align=center;html=1;fontSize=12;fontStyle=0;aspect=fixed;shape=mxgraph.aws4.resourceIcon;resIcon=mxgraph.aws4.managed_streaming_for_kafka;labelPosition=center;" parent="1" vertex="1">
          <mxGeometry x="836.28" y="842" width="78" height="78" as="geometry" />
        </mxCell>
        <mxCell id="_O-edJC-RUrUkgMbYZwg-48" value="ClickHouse" style="points=[];aspect=fixed;html=1;align=center;shadow=0;dashed=0;fillColor=#FF6A00;strokeColor=none;shape=mxgraph.alibaba_cloud.clickhouse;labelPosition=center;verticalLabelPosition=top;verticalAlign=bottom;" parent="1" vertex="1">
          <mxGeometry x="960" y="840" width="78.69" height="90" as="geometry" />
        </mxCell>
        <mxCell id="_O-edJC-RUrUkgMbYZwg-49" value="HDFS" style="outlineConnect=0;dashed=0;verticalLabelPosition=top;verticalAlign=bottom;align=center;html=1;shape=mxgraph.aws3.hdfs_cluster;fillColor=#F58534;gradientColor=none;labelPosition=center;" parent="1" vertex="1">
          <mxGeometry x="1075.89" y="840" width="85.86" height="80" as="geometry" />
        </mxCell>
        <mxCell id="_O-edJC-RUrUkgMbYZwg-50" value="Redis" style="image;sketch=0;aspect=fixed;html=1;points=[];align=center;fontSize=12;image=img/lib/mscae/Cache_Redis_Product.svg;labelPosition=center;verticalLabelPosition=top;verticalAlign=bottom;" parent="1" vertex="1">
          <mxGeometry x="1196.43" y="829" width="108.33" height="91" as="geometry" />
        </mxCell>
        <mxCell id="_O-edJC-RUrUkgMbYZwg-51" value="WebSocket" style="sketch=0;points=[[0,0,0],[0.25,0,0],[0.5,0,0],[0.75,0,0],[1,0,0],[0,1,0],[0.25,1,0],[0.5,1,0],[0.75,1,0],[1,1,0],[0,0.25,0],[0,0.5,0],[0,0.75,0],[1,0.25,0],[1,0.5,0],[1,0.75,0]];outlineConnect=0;fontColor=#232F3E;fillColor=#C925D1;strokeColor=#ffffff;dashed=0;verticalLabelPosition=top;verticalAlign=bottom;align=center;html=1;fontSize=12;fontStyle=0;aspect=fixed;shape=mxgraph.aws4.resourceIcon;resIcon=mxgraph.aws4.cloud_control_api;labelPosition=center;" parent="1" vertex="1">
          <mxGeometry x="1330" y="829" width="91" height="91" as="geometry" />
        </mxCell>
        <mxCell id="_O-edJC-RUrUkgMbYZwg-52" value="运维" style="sketch=0;points=[[0,0,0],[0.25,0,0],[0.5,0,0],[0.75,0,0],[1,0,0],[0,1,0],[0.25,1,0],[0.5,1,0],[0.75,1,0],[1,1,0],[0,0.25,0],[0,0.5,0],[0,0.75,0],[1,0.25,0],[1,0.5,0],[1,0.75,0]];outlineConnect=0;fontColor=#232F3E;fillColor=#C925D1;strokeColor=#ffffff;dashed=0;verticalLabelPosition=top;verticalAlign=bottom;align=center;html=1;fontSize=12;fontStyle=0;aspect=fixed;shape=mxgraph.aws4.resourceIcon;resIcon=mxgraph.aws4.codebuild;labelPosition=center;" parent="1" vertex="1">
          <mxGeometry x="1211" y="986.75" width="78" height="78" as="geometry" />
        </mxCell>
        <mxCell id="_O-edJC-RUrUkgMbYZwg-53" value="链路追踪" style="sketch=0;points=[[0,0,0],[0.25,0,0],[0.5,0,0],[0.75,0,0],[1,0,0],[0,1,0],[0.25,1,0],[0.5,1,0],[0.75,1,0],[1,1,0],[0,0.25,0],[0,0.5,0],[0,0.75,0],[1,0.25,0],[1,0.5,0],[1,0.75,0]];outlineConnect=0;fontColor=#232F3E;fillColor=#C925D1;strokeColor=#ffffff;dashed=0;verticalLabelPosition=top;verticalAlign=bottom;align=center;html=1;fontSize=12;fontStyle=0;aspect=fixed;shape=mxgraph.aws4.resourceIcon;resIcon=mxgraph.aws4.codestar;labelPosition=center;" parent="1" vertex="1">
          <mxGeometry x="1340" y="982.5" width="78" height="78" as="geometry" />
        </mxCell>
        <mxCell id="_O-edJC-RUrUkgMbYZwg-54" value="" style="image;sketch=0;aspect=fixed;html=1;points=[];align=center;fontSize=12;image=img/lib/mscae/Docker.svg;" parent="1" vertex="1">
          <mxGeometry x="816.73" y="990" width="97.55" height="80" as="geometry" />
        </mxCell>
        <mxCell id="_O-edJC-RUrUkgMbYZwg-55" value="" style="sketch=0;points=[[0,0,0],[0.25,0,0],[0.5,0,0],[0.75,0,0],[1,0,0],[0,1,0],[0.25,1,0],[0.5,1,0],[0.75,1,0],[1,1,0],[0,0.25,0],[0,0.5,0],[0,0.75,0],[1,0.25,0],[1,0.5,0],[1,0.75,0]];outlineConnect=0;fontColor=#232F3E;fillColor=#ED7100;strokeColor=#ffffff;dashed=0;verticalLabelPosition=bottom;verticalAlign=top;align=center;html=1;fontSize=12;fontStyle=0;aspect=fixed;shape=mxgraph.aws4.resourceIcon;resIcon=mxgraph.aws4.eks;" parent="1" vertex="1">
          <mxGeometry x="950" y="983.5" width="93" height="93" as="geometry" />
        </mxCell>
        <mxCell id="_O-edJC-RUrUkgMbYZwg-56" value="AIGC" style="sketch=0;points=[[0,0,0],[0.25,0,0],[0.5,0,0],[0.75,0,0],[1,0,0],[0,1,0],[0.25,1,0],[0.5,1,0],[0.75,1,0],[1,1,0],[0,0.25,0],[0,0.5,0],[0,0.75,0],[1,0.25,0],[1,0.5,0],[1,0.75,0]];outlineConnect=0;fontColor=#232F3E;fillColor=#ED7100;strokeColor=#ffffff;dashed=0;verticalLabelPosition=top;verticalAlign=bottom;align=center;html=1;fontSize=12;fontStyle=0;aspect=fixed;shape=mxgraph.aws4.resourceIcon;resIcon=mxgraph.aws4.quantum_technologies;labelPosition=center;" parent="1" vertex="1">
          <mxGeometry x="450" y="1201" width="78" height="78" as="geometry" />
        </mxCell>
        <mxCell id="_O-edJC-RUrUkgMbYZwg-57" value="" style="rounded=0;whiteSpace=wrap;html=1;" parent="1" vertex="1">
          <mxGeometry x="990" y="1180" width="410" height="130" as="geometry" />
        </mxCell>
        <mxCell id="_O-edJC-RUrUkgMbYZwg-58" value="推理跟踪" style="text;html=1;align=center;verticalAlign=middle;resizable=0;points=[];autosize=1;strokeColor=none;fillColor=none;" parent="1" vertex="1">
          <mxGeometry x="980" y="1150" width="70" height="30" as="geometry" />
        </mxCell>
        <mxCell id="_O-edJC-RUrUkgMbYZwg-59" value="帧生成" style="image;aspect=fixed;html=1;points=[];align=center;fontSize=12;image=img/lib/azure2/ai_machine_learning/Batch_AI.svg;labelPosition=center;verticalLabelPosition=top;verticalAlign=bottom;" parent="1" vertex="1">
          <mxGeometry x="1023.5" y="1205.78" width="52.39" height="74.22" as="geometry" />
        </mxCell>
        <mxCell id="_O-edJC-RUrUkgMbYZwg-60" value="滤波" style="image;aspect=fixed;html=1;points=[];align=center;fontSize=12;image=img/lib/azure2/ai_machine_learning/Azure_Experimentation_Studio.svg;labelPosition=center;verticalLabelPosition=top;verticalAlign=bottom;" parent="1" vertex="1">
          <mxGeometry x="1230" y="1208.12" width="80" height="65.88" as="geometry" />
        </mxCell>
        <mxCell id="_O-edJC-RUrUkgMbYZwg-61" value="KCF&lt;div&gt;&lt;br&gt;&lt;/div&gt;" style="image;aspect=fixed;html=1;points=[];align=center;fontSize=12;image=img/lib/azure2/ai_machine_learning/Cognitive_Services.svg;labelPosition=center;verticalLabelPosition=top;verticalAlign=bottom;" parent="1" vertex="1">
          <mxGeometry x="1128.43" y="1217" width="68" height="48" as="geometry" />
        </mxCell>
        <mxCell id="_O-edJC-RUrUkgMbYZwg-62" value="Prometheus" style="points=[];aspect=fixed;html=1;align=center;shadow=0;dashed=0;fillColor=#FF6A00;strokeColor=none;shape=mxgraph.alibaba_cloud.prometheus;labelPosition=center;verticalLabelPosition=top;verticalAlign=bottom;" parent="1" vertex="1">
          <mxGeometry x="1075.89" y="986.75" width="86.5" height="86.5" as="geometry" />
        </mxCell>
        <mxCell id="_O-edJC-RUrUkgMbYZwg-63" value="" style="rounded=0;whiteSpace=wrap;html=1;labelPosition=center;verticalLabelPosition=top;align=center;verticalAlign=bottom;" parent="1" vertex="1">
          <mxGeometry x="137.5" y="1410" width="572.5" height="180" as="geometry" />
        </mxCell>
        <mxCell id="_O-edJC-RUrUkgMbYZwg-64" value="渲染与编码层" style="text;html=1;align=center;verticalAlign=middle;resizable=0;points=[];autosize=1;strokeColor=none;fillColor=none;" parent="1" vertex="1">
          <mxGeometry x="125" y="1380" width="100" height="30" as="geometry" />
        </mxCell>
        <mxCell id="_O-edJC-RUrUkgMbYZwg-65" value="" style="rounded=0;whiteSpace=wrap;html=1;" parent="1" vertex="1">
          <mxGeometry x="750.5" y="1410" width="709.5" height="180" as="geometry" />
        </mxCell>
        <mxCell id="_O-edJC-RUrUkgMbYZwg-66" value="流推送分发层" style="text;html=1;align=center;verticalAlign=middle;resizable=0;points=[];autosize=1;strokeColor=none;fillColor=none;" parent="1" vertex="1">
          <mxGeometry x="750.5" y="1380" width="100" height="30" as="geometry" />
        </mxCell>
        <mxCell id="el39uAYpCaGv4X5DaxTX-3" value="WebGL" style="outlineConnect=0;dashed=0;verticalLabelPosition=top;verticalAlign=bottom;align=center;html=1;shape=mxgraph.aws3.glue;fillColor=#F58534;gradientColor=none;labelPosition=center;" vertex="1" parent="1">
          <mxGeometry x="158.75" y="1440" width="82.5" height="99" as="geometry" />
        </mxCell>
        <mxCell id="el39uAYpCaGv4X5DaxTX-4" value="ffmpeg" style="sketch=0;points=[[0,0,0],[0.25,0,0],[0.5,0,0],[0.75,0,0],[1,0,0],[0,1,0],[0.25,1,0],[0.5,1,0],[0.75,1,0],[1,1,0],[0,0.25,0],[0,0.5,0],[0,0.75,0],[1,0.25,0],[1,0.5,0],[1,0.75,0]];outlineConnect=0;fontColor=#232F3E;fillColor=#8C4FFF;strokeColor=#ffffff;dashed=0;verticalLabelPosition=top;verticalAlign=bottom;align=center;html=1;fontSize=12;fontStyle=0;aspect=fixed;shape=mxgraph.aws4.resourceIcon;resIcon=mxgraph.aws4.glue_databrew;labelPosition=center;" vertex="1" parent="1">
          <mxGeometry x="300" y="1444.75" width="89.5" height="89.5" as="geometry" />
        </mxCell>
        <mxCell id="el39uAYpCaGv4X5DaxTX-5" value="H.264 压缩" style="sketch=0;outlineConnect=0;fontColor=#232F3E;gradientColor=none;fillColor=#8C4FFF;strokeColor=none;dashed=0;verticalLabelPosition=top;verticalAlign=bottom;align=center;html=1;fontSize=12;fontStyle=0;aspect=fixed;pointerEvents=1;shape=mxgraph.aws4.glue_data_catalog;labelPosition=center;" vertex="1" parent="1">
          <mxGeometry x="439.66" y="1446.88" width="78.69" height="85.25" as="geometry" />
        </mxCell>
        <mxCell id="el39uAYpCaGv4X5DaxTX-6" value="RPC" style="sketch=0;points=[[0,0,0],[0.25,0,0],[0.5,0,0],[0.75,0,0],[1,0,0],[0,1,0],[0.25,1,0],[0.5,1,0],[0.75,1,0],[1,1,0],[0,0.25,0],[0,0.5,0],[0,0.75,0],[1,0.25,0],[1,0.5,0],[1,0.75,0]];outlineConnect=0;fontColor=#232F3E;fillColor=#7AA116;strokeColor=#ffffff;dashed=0;verticalLabelPosition=top;verticalAlign=bottom;align=center;html=1;fontSize=12;fontStyle=0;aspect=fixed;shape=mxgraph.aws4.resourceIcon;resIcon=mxgraph.aws4.greengrass;labelPosition=center;" vertex="1" parent="1">
          <mxGeometry x="565" y="1447.13" width="85" height="85" as="geometry" />
        </mxCell>
        <mxCell id="el39uAYpCaGv4X5DaxTX-7" value="RTSP" style="sketch=0;outlineConnect=0;fontColor=#232F3E;gradientColor=none;fillColor=#7AA116;strokeColor=none;dashed=0;verticalLabelPosition=top;verticalAlign=bottom;align=center;html=1;fontSize=12;fontStyle=0;aspect=fixed;pointerEvents=1;shape=mxgraph.aws4.iot_device_jobs_resource;labelPosition=center;" vertex="1" parent="1">
          <mxGeometry x="1011.95" y="1456" width="78.05" height="95.12" as="geometry" />
        </mxCell>
        <mxCell id="el39uAYpCaGv4X5DaxTX-8" value="CDN" style="points=[];aspect=fixed;html=1;align=center;shadow=0;dashed=0;fillColor=#FF6A00;strokeColor=none;shape=mxgraph.alibaba_cloud.cdn_content_distribution_network;labelPosition=center;verticalLabelPosition=top;verticalAlign=bottom;" vertex="1" parent="1">
          <mxGeometry x="810" y="1464.23" width="94.83" height="78.66" as="geometry" />
        </mxCell>
        <mxCell id="el39uAYpCaGv4X5DaxTX-9" value="WebRTC" style="points=[];aspect=fixed;html=1;align=center;shadow=0;dashed=0;fillColor=#FF6A00;strokeColor=none;shape=mxgraph.alibaba_cloud.pcdn_p2p_cdn;labelPosition=center;verticalLabelPosition=top;verticalAlign=bottom;" vertex="1" parent="1">
          <mxGeometry x="1233.96" y="1464" width="76.04" height="88.61" as="geometry" />
        </mxCell>
        <mxCell id="el39uAYpCaGv4X5DaxTX-12" value="内存计算" style="image;aspect=fixed;html=1;points=[];align=center;fontSize=12;image=img/lib/azure2/storage/Azure_HCP_Cache.svg;labelPosition=center;verticalLabelPosition=top;verticalAlign=bottom;" vertex="1" parent="1">
          <mxGeometry x="555.74" y="830" width="64.76" height="60" as="geometry" />
        </mxCell>
        <mxCell id="el39uAYpCaGv4X5DaxTX-13" value="帧缓存" style="sketch=0;points=[[0,0,0],[0.25,0,0],[0.5,0,0],[0.75,0,0],[1,0,0],[0,1,0],[0.25,1,0],[0.5,1,0],[0.75,1,0],[1,1,0],[0,0.25,0],[0,0.5,0],[0,0.75,0],[1,0.25,0],[1,0.5,0],[1,0.75,0]];outlineConnect=0;fontColor=#232F3E;fillColor=#7AA116;strokeColor=#ffffff;dashed=0;verticalLabelPosition=top;verticalAlign=bottom;align=center;html=1;fontSize=12;fontStyle=0;aspect=fixed;shape=mxgraph.aws4.resourceIcon;resIcon=mxgraph.aws4.file_cache;labelPosition=center;" vertex="1" parent="1">
          <mxGeometry x="580" y="994.75" width="70" height="70" as="geometry" />
        </mxCell>
      </root>
    </mxGraphModel>
  </diagram>
</mxfile>
